<?xml version="1.0" encoding="UTF-8" standalone="no"?>
<svg
   height="256"
   viewBox="0 0 256 256"
   width="256"
   version="1.1"
   id="svg5"
   sodipodi:docname="logo.svg"
   inkscape:version="1.4 (e7c3feb100, 2024-10-09)"
   xmlns:inkscape="http://www.inkscape.org/namespaces/inkscape"
   xmlns:sodipodi="http://sodipodi.sourceforge.net/DTD/sodipodi-0.dtd"
   xmlns="http://www.w3.org/2000/svg"
   xmlns:svg="http://www.w3.org/2000/svg">
  <defs
     id="defs5" />
  <sodipodi:namedview
     id="namedview5"
     pagecolor="#ffffff"
     bordercolor="#000000"
     borderopacity="0.25"
     inkscape:showpageshadow="2"
     inkscape:pageopacity="0.0"
     inkscape:pagecheckerboard="0"
     inkscape:deskcolor="#d1d1d1"
     inkscape:zoom="54.857143"
     inkscape:cx="10.5"
     inkscape:cy="10.5"
     inkscape:window-width="3440"
     inkscape:window-height="1371"
     inkscape:window-x="0"
     inkscape:window-y="0"
     inkscape:window-maximized="1"
     inkscape:current-layer="svg5" />
  <g
     id="g5"
     transform="scale(12.190476)">
    <g
       fill="#313255"
       id="g3">
      <path
         d="M 18.62,0 H 2.38 A 2.386,2.386 0 0 0 0,2.38 V 18.62 A 2.386,2.386 0 0 0 2.38,21 H 18.62 A 2.386,2.386 0 0 0 21,18.62 V 2.38 A 2.386,2.386 0 0 0 18.62,0 Z M 1,2.38 A 1.383,1.383 0 0 1 2.38,1 H 18.62 A 1.383,1.383 0 0 1 20,2.38 V 4.87 H 1 Z M 20,18.62 A 1.383,1.383 0 0 1 18.62,20 H 2.38 A 1.383,1.383 0 0 1 1,18.62 V 5.87 h 19 z"
         id="path1" />
      <path
         d="M 3.33,2.97 A 0.62,0.62 0 1 1 2.71,2.35 0.623,0.623 0 0 1 3.33,2.97 Z"
         id="path2" />
      <circle
         cx="4.9200001"
         cy="2.97"
         r="0.62"
         id="circle2" />
      <circle
         cx="7.1300001"
         cy="2.97"
         r="0.62"
         id="circle3" />
    </g>
    <g
       fill="#ee263a"
       id="g4">
      <path
         d="m 6.444,15.605 a 0.5,0.5 0 0 1 -0.325,-0.88 l 2.2,-1.881 -2.264,-1.936 a 0.5,0.5 0 0 1 0.648,-0.761 l 2.713,2.316 a 0.5,0.5 0 0 1 0,0.761 l -2.648,2.261 a 0.5,0.5 0 0 1 -0.324,0.12 z"
         id="path3" />
      <path
         d="m 14.235,15.344 h -4.121 a 0.5,0.5 0 0 1 0,-1 h 4.121 a 0.5,0.5 0 0 1 0,1 z"
         id="path4" />
    </g>
  </g>
</svg>
